<svg xmlns="http://www.w3.org/2000/svg" width="900" height="300" viewBox="0 0 900 300" role="img" aria-labelledby="title desc">
<!-- Schematic of the back of an NVIDIA DGX Spark, seen facing the rear ports; not to scale. QSFP port p0 (Linux enp1s0f0np0 and enP2p1s0f0np0) is the left cage and p1 (enp1s0f1np1 and enP2p1s0f1np1) is the right cage. NVIDIA documents p0 as the left cage, next to the RJ-45 port: DGX Spark User Guide, ConnectX-7 Networking, Full Correspondence Table, https://docs.nvidia.com/dgx/dgx-spark/spark-clustering.html -->
<title id="title">Back of a DGX Spark</title>
<desc id="desc">Rear panel of an NVIDIA DGX Spark, left to right: power button, USB-C power input, three USB-C ports, HDMI, 10GbE RJ-45 port for your network, and two QSFP ports. QSFP port p0 is the left QSFP cage, next to the 10GbE port (interfaces enp1s0f0np0 and enP2p1s0f0np0); p1 is the other cage (enp1s0f1np1 and enP2p1s0f1np1).</desc>
<rect x="1" y="1" width="898" height="298" rx="12" fill="#f6f8fa" stroke="#d0d7de" stroke-width="1.5"/>
<g transform="translate(40 96)"><rect x="0" y="0" width="820" height="108" rx="10" fill="#8c959f" stroke="#32383f" stroke-width="2"/><rect x="49" y="44" width="717" height="54" rx="14" fill="#d0d7de" stroke="#32383f" stroke-width="1.5"/><rect x="60" y="57" width="12" height="28" rx="6" fill="#b6bec7" stroke="#32383f" stroke-width="1.5"/><rect x="125.5" y="56" width="13" height="28" rx="6.5" fill="#1f2328"/><rect x="130.5" y="62" width="3" height="16" rx="1.5" fill="#6e7781"/><rect x="165.5" y="56" width="13" height="28" rx="6.5" fill="#1f2328"/><rect x="170.5" y="62" width="3" height="16" rx="1.5" fill="#6e7781"/><rect x="205.5" y="56" width="13" height="28" rx="6.5" fill="#1f2328"/><rect x="210.5" y="62" width="3" height="16" rx="1.5" fill="#6e7781"/><rect x="245.5" y="56" width="13" height="28" rx="6.5" fill="#1f2328"/><rect x="250.5" y="62" width="3" height="16" rx="1.5" fill="#6e7781"/><line x1="124" y1="88.5" x2="140" y2="88.5" stroke="#1f2328" stroke-width="1.5"/><line x1="124" y1="92" x2="140" y2="92" stroke="#1f2328" stroke-width="1.5" stroke-dasharray="4 2"/><polygon points="298,61 362,61 362,74 356,81 304,81 298,74" fill="#1f2328"/><rect x="307" y="66" width="46" height="5" rx="1" fill="#6e7781"/><polygon points="424,58 439,58 439,52 461,52 461,58 476,58 476,88 424,88" fill="#1f2328"/><line x1="436" y1="79" x2="436" y2="85" stroke="#6e7781" stroke-width="1.6"/><line x1="440" y1="79" x2="440" y2="85" stroke="#6e7781" stroke-width="1.6"/><line x1="444" y1="79" x2="444" y2="85" stroke="#6e7781" stroke-width="1.6"/><line x1="448" y1="79" x2="448" y2="85" stroke="#6e7781" stroke-width="1.6"/><line x1="452" y1="79" x2="452" y2="85" stroke="#6e7781" stroke-width="1.6"/><line x1="456" y1="79" x2="456" y2="85" stroke="#6e7781" stroke-width="1.6"/><line x1="460" y1="79" x2="460" y2="85" stroke="#6e7781" stroke-width="1.6"/><line x1="464" y1="79" x2="464" y2="85" stroke="#6e7781" stroke-width="1.6"/><rect x="522" y="50" width="236" height="42" rx="4" fill="#3d444d" stroke="#32383f" stroke-width="1.5"/><rect x="527" y="54" width="110" height="34" rx="2" fill="#16191d"/><text x="582" y="77.5" font-family="system-ui, -apple-system, 'Segoe UI', Roboto, 'Helvetica Neue', Arial, sans-serif" font-size="19" font-weight="bold" text-anchor="middle" fill="#ffffff">p0</text><rect x="643" y="54" width="110" height="34" rx="2" fill="#16191d"/><text x="698" y="77.5" font-family="system-ui, -apple-system, 'Segoe UI', Roboto, 'Helvetica Neue', Arial, sans-serif" font-size="19" font-weight="bold" text-anchor="middle" fill="#ffffff">p1</text></g>
<text x="680" y="38" font-family="system-ui, -apple-system, 'Segoe UI', Roboto, 'Helvetica Neue', Arial, sans-serif" font-size="12" font-weight="normal" text-anchor="middle" fill="#57606a">Linux interface names</text>
<text x="622" y="60" font-family="ui-monospace, SFMono-Regular, 'SF Mono', Menlo, Consolas, 'Liberation Mono', monospace" font-size="12" font-weight="normal" text-anchor="middle" fill="#1f2328">enp1s0f0np0</text>
<text x="622" y="75" font-family="ui-monospace, SFMono-Regular, 'SF Mono', Menlo, Consolas, 'Liberation Mono', monospace" font-size="12" font-weight="normal" text-anchor="middle" fill="#1f2328">enP2p1s0f0np0</text>
<line x1="622" y1="81" x2="622" y2="149" stroke="#424a53" stroke-width="1.2"/>
<circle cx="622" cy="150" r="2.5" fill="#424a53"/>
<text x="738" y="60" font-family="ui-monospace, SFMono-Regular, 'SF Mono', Menlo, Consolas, 'Liberation Mono', monospace" font-size="12" font-weight="normal" text-anchor="middle" fill="#1f2328">enp1s0f1np1</text>
<text x="738" y="75" font-family="ui-monospace, SFMono-Regular, 'SF Mono', Menlo, Consolas, 'Liberation Mono', monospace" font-size="12" font-weight="normal" text-anchor="middle" fill="#1f2328">enP2p1s0f1np1</text>
<line x1="738" y1="81" x2="738" y2="149" stroke="#424a53" stroke-width="1.2"/>
<circle cx="738" cy="150" r="2.5" fill="#424a53"/>
<line x1="106" y1="182" x2="106" y2="221" stroke="#424a53" stroke-width="1.2"/>
<text x="106" y="238" font-family="system-ui, -apple-system, 'Segoe UI', Roboto, 'Helvetica Neue', Arial, sans-serif" font-size="13" font-weight="normal" text-anchor="middle" fill="#1f2328">Power</text>
<text x="106" y="253" font-family="system-ui, -apple-system, 'Segoe UI', Roboto, 'Helvetica Neue', Arial, sans-serif" font-size="13" font-weight="normal" text-anchor="middle" fill="#1f2328">button</text>
<line x1="172" y1="190" x2="172" y2="221" stroke="#424a53" stroke-width="1.2"/>
<text x="172" y="238" font-family="system-ui, -apple-system, 'Segoe UI', Roboto, 'Helvetica Neue', Arial, sans-serif" font-size="13" font-weight="normal" text-anchor="middle" fill="#1f2328">USB-C</text>
<text x="172" y="253" font-family="system-ui, -apple-system, 'Segoe UI', Roboto, 'Helvetica Neue', Arial, sans-serif" font-size="13" font-weight="normal" text-anchor="middle" fill="#1f2328">power in</text>
<line x1="212" y1="181" x2="212" y2="213" stroke="#424a53" stroke-width="1.2"/><line x1="252" y1="181" x2="252" y2="213" stroke="#424a53" stroke-width="1.2"/><line x1="292" y1="181" x2="292" y2="213" stroke="#424a53" stroke-width="1.2"/><line x1="212" y1="213" x2="292" y2="213" stroke="#424a53" stroke-width="1.2"/><line x1="252" y1="213" x2="252" y2="221" stroke="#424a53" stroke-width="1.2"/>
<text x="252" y="238" font-family="system-ui, -apple-system, 'Segoe UI', Roboto, 'Helvetica Neue', Arial, sans-serif" font-size="13" font-weight="normal" text-anchor="middle" fill="#1f2328">USB-C</text>
<line x1="370" y1="178" x2="370" y2="221" stroke="#424a53" stroke-width="1.2"/>
<text x="370" y="238" font-family="system-ui, -apple-system, 'Segoe UI', Roboto, 'Helvetica Neue', Arial, sans-serif" font-size="13" font-weight="normal" text-anchor="middle" fill="#1f2328">HDMI</text>
<line x1="490" y1="185" x2="490" y2="221" stroke="#424a53" stroke-width="1.2"/>
<text x="490" y="238" font-family="system-ui, -apple-system, 'Segoe UI', Roboto, 'Helvetica Neue', Arial, sans-serif" font-size="13" font-weight="600" text-anchor="middle" fill="#1f2328">10GbE (your network)</text>
<line x1="622" y1="185" x2="622" y2="213" stroke="#424a53" stroke-width="1.2"/><line x1="738" y1="185" x2="738" y2="213" stroke="#424a53" stroke-width="1.2"/><line x1="622" y1="213" x2="738" y2="213" stroke="#424a53" stroke-width="1.2"/><line x1="680" y1="213" x2="680" y2="221" stroke="#424a53" stroke-width="1.2"/>
<text x="680" y="238" font-family="system-ui, -apple-system, 'Segoe UI', Roboto, 'Helvetica Neue', Arial, sans-serif" font-size="13" font-weight="600" text-anchor="middle" fill="#1f2328">QSFP (ConnectX-7)</text>
<text x="450" y="283" font-family="system-ui, -apple-system, 'Segoe UI', Roboto, 'Helvetica Neue', Arial, sans-serif" font-size="13" font-weight="normal" text-anchor="middle" fill="#57606a">Back of a DGX Spark</text>
</svg>
